<?xml version="1.0" standalone="no"?>
<!DOCTYPE svg PUBLIC "-//W3C//DTD SVG 20010904//EN"
 "http://www.w3.org/TR/2001/REC-SVG-20010904/DTD/svg10.dtd">
<svg version="1.0" xmlns="http://www.w3.org/2000/svg"
 width="896.000000pt" height="896.000000pt" viewBox="0 0 896.000000 896.000000"
 preserveAspectRatio="xMidYMid meet">
<metadata>
Created by potrace 1.11, written by Peter Selinger 2001-2013
</metadata>
<g transform="translate(0.000000,896.000000) scale(0.100000,-0.100000)"
fill="#000000" stroke="none">
<path d="M4024 8802 c-31 -3 -31 -4 -24 -38 4 -19 4 -36 0 -39 -4 -3 -5 -20
-1 -37 7 -33 5 -92 -4 -115 -2 -7 0 -15 4 -18 5 -3 5 -21 1 -40 -4 -19 -4 -51
0 -70 4 -19 4 -37 0 -40 -5 -3 -5 -18 -1 -33 5 -15 5 -36 1 -47 -4 -11 -4 -32
0 -46 4 -15 4 -32 0 -39 -4 -6 -4 -28 1 -49 4 -20 8 -38 7 -41 -1 -3 -5 -20
-9 -38 -4 -17 -3 -34 1 -37 4 -3 4 -21 0 -41 -5 -19 -5 -48 0 -63 4 -16 4 -34
0 -41 -4 -6 -4 -27 0 -46 4 -19 4 -36 0 -39 -4 -3 -4 -21 0 -40 4 -19 4 -37 0
-40 -4 -3 -4 -21 0 -40 4 -19 4 -37 0 -40 -5 -3 -5 -18 0 -34 4 -15 4 -34 0
-41 -4 -6 -4 -27 0 -46 4 -19 4 -36 0 -39 -4 -3 -4 -21 0 -40 4 -19 4 -37 0
-40 -4 -3 -5 -20 -1 -37 7 -33 5 -92 -4 -115 -2 -7 0 -15 4 -18 5 -3 5 -21 1
-40 -4 -19 -4 -51 0 -70 4 -19 4 -37 0 -40 -5 -3 -5 -18 -1 -33 5 -15 5 -36 1
-47 -4 -11 -4 -32 0 -46 4 -15 4 -32 0 -39 -4 -6 -4 -28 1 -49 4 -20 8 -38 7
-41 -1 -3 -5 -20 -9 -38 -4 -17 -3 -34 1 -37 4 -3 4 -21 0 -41 -5 -19 -5 -48
0 -63 4 -16 4 -34 0 -41 -4 -6 -4 -27 0 -46 4 -19 4 -36 0 -39 -4 -3 -4 -21 0
-40 4 -19 4 -37 0 -40 -4 -3 -4 -21 0 -40 4 -19 4 -37 0 -40 -5 -3 -5 -18 0
-34 4 -15 4 -34 0 -41 -4 -6 -4 -27 0 -46 4 -19 4 -36 0 -39 -4 -3 -4 -21 0
-40 4 -19 4 -37 0 -40 -4 -3 -5 -20 -1 -37 7 -33 5 -92 -4 -115 -2 -7 0 -15 4
-18 5 -3 5 -21 1 -40 -4 -19 -4 -51 0 -70 4 -19 4 -37 0 -40 -5 -3 -5 -18 -1
-33 5 -15 5 -36 1 -47 -4 -11 -4 -32 0 -46 4 -15 4 -32 0 -39 -4 -6 -4 -26 0
-44 4 -17 7 -33 8 -36 1 -3 -3 -22 -7 -43 -5 -20 -5 -39 -1 -42 4 -3 4 -21 0
-41 -5 -19 -5 -48 0 -63 4 -16 4 -34 0 -41 -4 -6 -4 -27 0 -46 4 -19 4 -36 0
-39 -4 -3 -4 -21 0 -40 4 -19 4 -37 0 -40 -4 -3 -4 -21 0 -40 4 -19 4 -37 0
-40 -5 -3 -5 -18 0 -34 4 -15 4 -34 0 -41 -4 -6 -4 -27 0 -46 4 -19 4 -36 0
-39 -4 -3 -4 -21 0 -40 4 -19 4 -37 0 -40 -4 -3 -5 -20 -1 -37 7 -33 5 -92 -4
-115 -2 -7 0 -15 4 -18 5 -3 5 -21 1 -40 -4 -19 -4 -51 0 -70 4 -19 4 -37 0
-40 -5 -3 -5 -18 -1 -33 5 -15 5 -36 1 -47 -4 -11 -4 -32 0 -46 4 -15 4 -32 0
-39 -4 -6 -4 -26 0 -44 8 -39 8 -43 -1 -84 -4 -17 -3 -34 1 -37 4 -3 4 -21 0
-41 -5 -19 -5 -48 0 -63 4 -16 4 -34 0 -41 -4 -6 -4 -27 0 -46 4 -19 4 -36 0
-39 -4 -3 -4 -21 0 -40 4 -20 4 -38 -1 -41 -5 -3 -7 -10 -3 -15 8 -14 6 -159
-3 -159 -2 0 -37 18 -78 40 -41 21 -75 37 -75 33 0 -3 -6 -1 -12 5 -31 25
-249 100 -373 127 -108 24 -306 47 -410 46 -74 0 -266 -16 -315 -26 -14 -2
-38 -7 -55 -10 -79 -13 -256 -63 -287 -80 -14 -8 -33 -15 -42 -15 -9 0 -24 -4
-34 -9 -9 -5 -66 -34 -127 -64 -139 -68 -233 -129 -375 -242 -31 -25 -230
-223 -250 -250 -90 -117 -109 -143 -120 -165 -7 -14 -16 -27 -19 -30 -20 -15
-122 -214 -164 -320 -26 -65 -63 -174 -72 -214 -53 -233 -59 -282 -60 -491 0
-152 7 -250 24 -340 12 -62 41 -185 48 -205 3 -8 8 -21 10 -27 1 -7 5 -19 6
-25 2 -7 10 -26 16 -43 7 -16 14 -37 16 -45 2 -8 13 -37 26 -65 12 -27 23 -52
24 -55 2 -10 52 -106 80 -155 158 -281 429 -552 710 -710 55 -31 127 -69 135
-70 3 -1 31 -13 63 -28 32 -15 63 -27 70 -27 7 0 17 -4 22 -8 18 -16 233 -76
310 -87 22 -3 51 -8 65 -12 37 -8 254 -26 295 -24 6 0 51 2 101 5 81 4 133 9
189 20 51 9 105 18 107 16 2 -1 16 3 31 9 15 6 40 13 55 16 15 2 54 14 87 25
33 11 67 22 76 24 46 11 180 74 299 139 247 135 520 396 675 647 19 30 39 60
45 67 5 7 10 19 10 27 0 8 3 16 8 18 8 3 85 169 97 208 4 14 11 30 15 35 12
15 80 256 85 300 1 12 15 99 21 135 6 32 16 218 14 245 -1 11 -1 27 -1 35 1
29 0 75 -2 100 -2 14 0 40 4 58 4 17 3 34 -1 37 -4 3 -4 21 0 40 4 19 4 51 0
70 -4 19 -4 37 0 40 5 3 5 18 1 33 -5 15 -5 36 -1 47 4 11 4 32 0 46 -4 15 -4
32 0 39 4 6 4 26 0 44 -4 17 -7 33 -8 36 -1 3 3 22 7 43 5 20 5 39 1 42 -4 3
-4 21 0 41 5 19 5 48 0 63 -4 16 -4 34 0 41 4 6 4 27 0 46 -4 19 -4 36 0 39 4
3 4 21 0 40 -4 19 -4 37 0 40 4 3 5 20 1 37 -7 33 -5 92 4 115 2 7 0 15 -4 18
-5 3 -5 21 -1 40 4 19 4 51 0 70 -4 19 -4 37 0 40 5 3 5 18 1 33 -5 15 -5 36
-1 47 4 11 4 32 0 46 -4 15 -4 32 0 39 4 6 4 28 -1 49 -4 20 -8 36 -8 36 0 0
4 17 8 38 5 20 5 39 1 42 -4 3 -4 20 0 39 4 19 4 53 0 75 -4 23 -4 41 0 41 4
0 4 18 0 40 -4 22 -4 40 0 40 4 0 4 15 0 34 -4 19 -4 39 0 46 4 7 4 27 0 46
-4 19 -4 34 0 34 4 0 4 18 0 40 -4 22 -4 40 0 40 4 0 4 18 0 40 -4 22 -4 40 0
40 4 0 4 15 0 34 -4 19 -4 39 0 46 4 7 4 27 0 46 -4 19 -4 34 0 34 4 0 4 18 0
40 -4 22 -4 40 0 40 4 0 4 18 0 40 -4 22 -4 40 0 40 4 0 4 15 0 34 -4 19 -4
39 0 46 4 7 4 27 0 46 -4 19 -4 34 0 34 4 0 4 18 0 40 -4 22 -4 40 0 40 4 0 4
18 0 40 -4 22 -4 40 0 40 4 0 4 15 0 34 -4 19 -4 39 0 46 4 7 4 27 0 46 -4 19
-4 34 0 34 4 0 4 18 0 40 -4 22 -4 40 0 40 4 0 4 18 0 40 -4 22 -4 40 0 40 4
0 4 15 0 34 -4 19 -4 39 0 46 4 7 4 27 0 46 -4 19 -4 34 0 34 4 0 4 18 0 40
-4 22 -4 40 0 40 4 0 4 18 0 40 -4 22 -4 40 0 40 4 0 4 15 0 34 -4 19 -4 39 0
46 4 7 4 27 0 46 -4 19 -4 34 0 34 4 0 4 18 0 40 -4 22 -4 40 0 40 4 0 4 18 0
40 -4 22 -4 40 0 40 4 0 4 15 0 34 -4 19 -4 39 0 46 4 7 4 27 0 46 -4 19 -4
34 0 34 4 0 4 18 0 40 -4 22 -4 40 0 40 4 0 4 18 0 40 -4 22 -4 40 0 40 4 0 4
15 0 34 -4 19 -4 39 0 46 4 7 4 27 0 46 -4 19 -4 34 0 34 4 0 4 18 0 40 -4 22
-4 40 0 40 4 0 4 18 0 40 -4 22 -4 40 0 40 4 0 4 15 0 34 -4 19 -4 39 0 46 4
7 4 27 0 46 -4 19 -4 34 0 34 4 0 4 18 0 40 -4 22 -4 40 0 40 4 0 4 18 0 40
-4 22 -4 40 0 40 4 0 4 15 0 34 -4 19 -4 39 0 46 4 7 4 27 0 45 -4 18 -4 38 0
45 4 7 4 27 0 46 -4 18 -5 35 -3 38 6 5 6 62 1 169 l-3 59 28 -6 c15 -3 26 -2
23 2 -2 4 11 7 30 7 19 0 34 -3 34 -7 0 -4 12 -3 28 1 15 5 37 5 49 0 12 -4
25 -4 28 1 3 5 18 5 35 0 17 -5 30 -5 30 0 0 5 13 5 30 0 17 -5 30 -5 30 0 0
5 13 5 30 0 17 -5 30 -5 30 0 0 4 12 5 27 1 15 -4 46 -4 70 -1 24 4 43 4 43 1
0 -7 139 -6 146 2 3 3 18 1 34 -3 16 -4 31 -5 35 -2 7 8 102 5 115 -3 6 -3 10
-2 10 3 0 6 14 7 33 3 17 -4 47 -4 65 0 17 3 32 3 32 -2 0 -4 14 -4 30 1 17 5
30 5 30 0 0 -5 13 -5 30 0 17 5 30 5 30 0 0 -5 13 -5 30 0 17 5 32 5 35 0 3
-5 15 -6 29 0 12 4 29 4 36 0 8 -5 21 -5 30 0 9 5 22 5 30 0 8 -5 21 -5 30 0
9 5 22 5 28 1 7 -4 35 -5 62 -1 27 4 55 3 62 -1 6 -4 19 -4 28 1 9 5 22 5 30
0 8 -5 21 -5 30 0 9 5 22 5 30 0 8 -5 21 -5 30 0 9 5 22 5 29 0 8 -4 27 -4 42
0 16 5 29 5 29 0 0 -5 13 -5 30 0 17 5 30 5 30 0 0 -5 13 -5 30 0 17 5 30 6
30 2 0 -4 29 -7 65 -7 36 0 65 3 65 7 0 3 12 3 27 -1 16 -4 44 -4 65 -1 20 4
42 4 49 -1 7 -4 20 -4 29 1 9 5 22 5 30 0 8 -5 21 -5 30 0 9 5 22 5 30 0 8 -5
21 -5 30 0 9 5 22 5 29 0 8 -4 27 -4 42 0 16 5 29 5 29 0 0 -5 13 -5 30 0 17
5 30 5 30 0 0 -5 13 -5 30 0 17 5 30 6 30 2 0 -4 29 -7 65 -7 36 0 65 4 65 8
0 5 4 5 10 2 13 -8 108 -11 115 -3 4 3 20 2 36 -2 16 -5 31 -5 34 0 3 4 14 6
25 3 20 -5 20 0 20 715 0 697 -1 720 -19 725 -10 2 -25 1 -32 -4 -7 -4 -17 -5
-23 -2 -12 8 -66 10 -66 2 0 -3 -15 -4 -32 -2 -51 6 -158 4 -168 -2 -6 -4 -10
-3 -10 2 0 4 -16 8 -35 8 -19 0 -35 -3 -35 -7 0 -4 -6 -5 -13 -2 -25 9 -72 11
-94 2 -13 -4 -23 -4 -23 0 0 4 -16 7 -35 7 -19 0 -35 -2 -35 -5 0 -7 -69 -4
-76 3 -3 3 -17 2 -30 -3 -14 -6 -24 -6 -24 0 0 5 -12 5 -29 0 -16 -4 -32 -6
-35 -3 -5 6 -180 8 -201 3 -5 -1 -12 -1 -15 0 -13 5 -70 4 -70 -1 0 -3 -15 -4
-32 -2 -51 6 -158 4 -168 -2 -6 -4 -10 -3 -10 2 0 4 -16 8 -35 8 -19 0 -35 -3
-35 -7 0 -4 -6 -5 -13 -2 -25 9 -72 11 -94 2 -13 -4 -23 -4 -23 0 0 4 -16 7
-35 7 -19 0 -35 -2 -35 -5 0 -7 -69 -4 -76 3 -3 3 -17 2 -30 -3 -14 -6 -24 -6
-24 0 0 5 -12 5 -29 0 -16 -4 -32 -6 -35 -3 -5 6 -180 8 -201 3 -5 -1 -12 -1
-15 0 -13 5 -70 4 -70 -1 0 -3 -15 -4 -32 -2 -51 6 -158 4 -168 -2 -6 -4 -10
-3 -10 2 0 4 -16 8 -35 8 -19 0 -35 -3 -35 -7 0 -4 -6 -5 -13 -2 -25 9 -72 11
-94 2 -13 -4 -23 -4 -23 0 0 4 -16 7 -35 7 -19 0 -35 -2 -35 -5 0 -7 -69 -4
-76 3 -3 3 -17 2 -30 -3 -14 -6 -24 -6 -24 0 0 5 -12 5 -29 0 -16 -4 -32 -6
-35 -3 -5 6 -180 8 -201 3 -5 -1 -12 -1 -15 0 -13 5 -70 4 -70 -1 0 -3 -15 -4
-32 -2 -51 6 -158 4 -168 -2 -6 -4 -10 -3 -10 2 0 4 -16 8 -35 8 -19 0 -35 -3
-35 -7 0 -4 -6 -5 -13 -2 -25 9 -72 11 -94 2 -13 -4 -23 -4 -23 0 0 4 -16 7
-35 7 -19 0 -35 -2 -35 -5 0 -7 -69 -4 -76 3 -3 3 -17 2 -30 -3 -14 -6 -24 -6
-24 0 0 5 -12 5 -28 1 -15 -5 -37 -5 -49 0 -13 5 -25 4 -28 -1 -3 -5 -16 -6
-28 -2 -12 4 -36 6 -53 4z"/>
</g>
</svg>
